<?xml version="1.0" encoding="UTF-8" standalone="no"?>
<!-- Created with Inkscape (http://www.inkscape.org/) -->

<svg
   width="524.54327"
   height="128"
   viewBox="0 0 138.78542 33.866667"
   version="1.1"
   id="svg1"
   sodipodi:docname="logo_light.svg"
   inkscape:version="1.3.2 (091e20ef0f, 2023-11-25, custom)"
   inkscape:export-filename="favicon_light.png"
   inkscape:export-xdpi="96.000008"
   inkscape:export-ydpi="96.000008"
   xmlns:inkscape="http://www.inkscape.org/namespaces/inkscape"
   xmlns:sodipodi="http://sodipodi.sourceforge.net/DTD/sodipodi-0.dtd"
   xmlns="http://www.w3.org/2000/svg"
   xmlns:svg="http://www.w3.org/2000/svg">
  <sodipodi:namedview
     id="namedview1"
     pagecolor="#6f6f6f"
     bordercolor="#000000"
     borderopacity="0.25"
     inkscape:showpageshadow="2"
     inkscape:pageopacity="0.0"
     inkscape:pagecheckerboard="0"
     inkscape:deskcolor="#d1d1d1"
     inkscape:document-units="px"
     showgrid="false"
     inkscape:zoom="1.1656214"
     inkscape:cx="399.78676"
     inkscape:cy="-34.31646"
     inkscape:window-width="1920"
     inkscape:window-height="1080"
     inkscape:window-x="0"
     inkscape:window-y="0"
     inkscape:window-maximized="1"
     inkscape:current-layer="layer1">
    <inkscape:grid
       id="grid1"
       units="px"
       originx="0.14375603"
       originy="2.1585829e-09"
       spacingx="8.4666667"
       spacingy="8.4666667"
       empcolor="#0099e5"
       empopacity="0.30196078"
       color="#0099e5"
       opacity="0.14901961"
       empspacing="5"
       dotted="false"
       gridanglex="30"
       gridanglez="30"
       visible="false" />
    <inkscape:grid
       id="grid2"
       units="px"
       originx="0.14375603"
       originy="2.1585829e-09"
       spacingx="1.0583333"
       spacingy="1.0583333"
       empcolor="#0099e5"
       empopacity="0.0745098"
       color="#0099e5"
       opacity="0.07843137"
       empspacing="5"
       dotted="false"
       gridanglex="30"
       gridanglez="30"
       visible="false" />
    <inkscape:page
       x="0"
       y="0"
       width="138.78542"
       height="33.866669"
       id="page2"
       margin="0"
       bleed="0"
       inkscape:export-filename="logo_light.png"
       inkscape:export-xdpi="384"
       inkscape:export-ydpi="384" />
  </sodipodi:namedview>
  <defs
     id="defs1">
    <inkscape:path-effect
       effect="fillet_chamfer"
       id="path-effect11"
       is_visible="true"
       lpeversion="1"
       nodesatellites_param="F,0,0,1,0,0,0,1 @ F,0,0,1,0,0,0,1 @ F,0,1,1,0,1.058333,0,1 @ F,0,0,1,0,1.058333,0,1"
       radius="0"
       unit="px"
       method="auto"
       mode="F"
       chamfer_steps="1"
       flexible="false"
       use_knot_distance="true"
       apply_no_radius="true"
       apply_with_radius="true"
       only_selected="false"
       hide_knots="false" />
    <inkscape:path-effect
       effect="fillet_chamfer"
       id="path-effect9"
       is_visible="true"
       lpeversion="1"
       nodesatellites_param="F,0,0,1,0,0,0,1 @ F,0,0,1,0,1.0583346,0,1 @ F,0,0,1,0,0,0,1 @ F,0,0,1,0,1.0583346,0,1"
       radius="0"
       unit="px"
       method="auto"
       mode="F"
       chamfer_steps="1"
       flexible="false"
       use_knot_distance="true"
       apply_no_radius="true"
       apply_with_radius="true"
       only_selected="false"
       hide_knots="false" />
    <inkscape:path-effect
       effect="fillet_chamfer"
       id="path-effect28"
       is_visible="true"
       lpeversion="1"
       nodesatellites_param="F,0,0,1,0,0,0,1 @ F,0,0,1,0,0,0,1 @ F,0,0,1,0,0,0,1 @ F,0,0,1,0,1.0583357,0,1"
       radius="0"
       unit="px"
       method="auto"
       mode="F"
       chamfer_steps="1"
       flexible="false"
       use_knot_distance="true"
       apply_no_radius="true"
       apply_with_radius="true"
       only_selected="false"
       hide_knots="false" />
    <inkscape:path-effect
       effect="fillet_chamfer"
       id="path-effect27"
       is_visible="true"
       lpeversion="1"
       nodesatellites_param="F,0,0,1,0,0,0,1 @ F,0,0,1,0,0,0,1 @ F,0,0,1,0,1.0583314,0,1 @ F,0,0,1,0,0,0,1"
       radius="0"
       unit="px"
       method="auto"
       mode="F"
       chamfer_steps="1"
       flexible="false"
       use_knot_distance="true"
       apply_no_radius="true"
       apply_with_radius="true"
       only_selected="false"
       hide_knots="false" />
    <inkscape:path-effect
       effect="fillet_chamfer"
       id="path-effect26"
       is_visible="true"
       lpeversion="1"
       nodesatellites_param="F,0,0,1,0,1.058334,0,1 @ F,0,0,1,0,0,0,1 @ F,0,0,1,0,0,0,1 @ F,0,0,1,0,0,0,1"
       radius="0"
       unit="px"
       method="auto"
       mode="F"
       chamfer_steps="1"
       flexible="false"
       use_knot_distance="true"
       apply_no_radius="true"
       apply_with_radius="true"
       only_selected="false"
       hide_knots="false" />
    <inkscape:path-effect
       effect="fillet_chamfer"
       id="path-effect25"
       is_visible="true"
       lpeversion="1"
       nodesatellites_param="F,0,0,1,0,1.0583314,0,1 @ F,0,0,1,0,0,0,1 @ F,0,0,1,0,1.0583313,0,1 @ F,0,0,1,0,0,0,1"
       radius="0"
       unit="px"
       method="auto"
       mode="F"
       chamfer_steps="1"
       flexible="false"
       use_knot_distance="true"
       apply_no_radius="true"
       apply_with_radius="true"
       only_selected="false"
       hide_knots="false" />
    <inkscape:path-effect
       effect="fillet_chamfer"
       id="path-effect24"
       is_visible="true"
       lpeversion="1"
       nodesatellites_param="F,0,0,1,0,0,0,1 @ F,0,0,1,0,1.058333,0,1 @ F,0,0,1,0,0,0,1 @ F,0,0,1,0,1.058333,0,1"
       radius="0"
       unit="px"
       method="auto"
       mode="F"
       chamfer_steps="1"
       flexible="false"
       use_knot_distance="true"
       apply_no_radius="true"
       apply_with_radius="true"
       only_selected="false"
       hide_knots="false" />
    <inkscape:path-effect
       effect="fillet_chamfer"
       id="path-effect23"
       is_visible="true"
       lpeversion="1"
       nodesatellites_param="F,0,0,1,0,0,0,1 @ F,0,0,1,0,0,0,1 @ F,0,0,1,0,1.058334,0,1 @ F,0,0,1,0,0,0,1 @ F,0,0,1,0,0,0,1 @ F,0,0,1,0,1.0583344,0,1 @ F,0,0,1,0,0,0,1"
       radius="0"
       unit="px"
       method="auto"
       mode="F"
       chamfer_steps="1"
       flexible="false"
       use_knot_distance="true"
       apply_no_radius="true"
       apply_with_radius="true"
       only_selected="false"
       hide_knots="false" />
    <inkscape:path-effect
       effect="fillet_chamfer"
       id="path-effect18"
       is_visible="true"
       lpeversion="1"
       nodesatellites_param="F,0,0,1,0,0,0,1 @ F,0,0,1,0,1.0583314,0,1 @ F,0,0,1,0,0,0,1 @ F,0,0,1,0,1.0583314,0,1"
       radius="0"
       unit="px"
       method="auto"
       mode="F"
       chamfer_steps="1"
       flexible="false"
       use_knot_distance="true"
       apply_no_radius="true"
       apply_with_radius="true"
       only_selected="false"
       hide_knots="false" />
    <inkscape:path-effect
       effect="fillet_chamfer"
       id="path-effect16"
       is_visible="true"
       lpeversion="1"
       nodesatellites_param="F,0,0,1,0,0,0,1 @ F,0,0,1,0,1.0583314,0,1 @ F,0,0,1,0,0,0,1 @ F,0,0,1,0,1.0583314,0,1"
       radius="0"
       unit="px"
       method="auto"
       mode="F"
       chamfer_steps="1"
       flexible="false"
       use_knot_distance="true"
       apply_no_radius="true"
       apply_with_radius="true"
       only_selected="false"
       hide_knots="false" />
    <inkscape:path-effect
       effect="fillet_chamfer"
       id="path-effect10"
       is_visible="true"
       lpeversion="1"
       nodesatellites_param="F,0,0,1,0,0,0,1 @ F,0,0,1,0,1.0583314,0,1 @ F,0,0,1,0,0,0,1 @ F,0,0,1,0,1.0583314,0,1"
       radius="0"
       unit="px"
       method="auto"
       mode="F"
       chamfer_steps="1"
       flexible="false"
       use_knot_distance="true"
       apply_no_radius="true"
       apply_with_radius="true"
       only_selected="false"
       hide_knots="false" />
    <inkscape:path-effect
       effect="fillet_chamfer"
       id="path-effect8"
       is_visible="true"
       lpeversion="1"
       nodesatellites_param="F,0,0,1,0,0,0,1 @ F,0,0,1,0,1.0583314,0,1 @ F,0,0,1,0,0,0,1 @ F,0,0,1,0,1.0583314,0,1"
       radius="0"
       unit="px"
       method="auto"
       mode="F"
       chamfer_steps="1"
       flexible="false"
       use_knot_distance="true"
       apply_no_radius="true"
       apply_with_radius="true"
       only_selected="false"
       hide_knots="false" />
    <inkscape:path-effect
       effect="fillet_chamfer"
       id="path-effect6"
       is_visible="true"
       lpeversion="1"
       nodesatellites_param="F,0,0,1,0,0,0,1 @ F,0,0,1,0,1.0583314,0,1 @ F,0,0,1,0,0,0,1 @ F,0,0,1,0,1.0583314,0,1"
       radius="0"
       unit="px"
       method="auto"
       mode="F"
       chamfer_steps="1"
       flexible="false"
       use_knot_distance="true"
       apply_no_radius="true"
       apply_with_radius="true"
       only_selected="false"
       hide_knots="false" />
    <inkscape:path-effect
       effect="fillet_chamfer"
       id="path-effect5"
       is_visible="true"
       lpeversion="1"
       nodesatellites_param="F,0,0,1,0,0,0,1 @ F,0,0,1,0,1.0583314,0,1 @ F,0,0,1,0,0,0,1 @ F,0,0,1,0,1.0583295,0,1"
       radius="0"
       unit="px"
       method="auto"
       mode="F"
       chamfer_steps="1"
       flexible="false"
       use_knot_distance="true"
       apply_no_radius="true"
       apply_with_radius="true"
       only_selected="false"
       hide_knots="false" />
    <inkscape:path-effect
       effect="fillet_chamfer"
       id="path-effect4"
       is_visible="true"
       lpeversion="1"
       nodesatellites_param="F,0,0,1,0,4.2333355,0,1 @ F,0,0,1,0,4.2333345,0,1 @ F,0,0,1,0,0,0,1 @ F,0,0,1,0,0,0,1"
       radius="0"
       unit="px"
       method="auto"
       mode="F"
       chamfer_steps="1"
       flexible="false"
       use_knot_distance="true"
       apply_no_radius="true"
       apply_with_radius="true"
       only_selected="false"
       hide_knots="false" />
    <inkscape:path-effect
       effect="fillet_chamfer"
       id="path-effect3"
       is_visible="true"
       lpeversion="1"
       nodesatellites_param="F,0,0,1,0,0.79375219,0,1 @ F,0,0,1,0,3.1749997,0,1 @ F,0,0,1,0,0,0,1 @ F,0,0,1,0,0,0,1"
       radius="0"
       unit="px"
       method="auto"
       mode="F"
       chamfer_steps="1"
       flexible="false"
       use_knot_distance="true"
       apply_no_radius="true"
       apply_with_radius="true"
       only_selected="false"
       hide_knots="false" />
    <inkscape:path-effect
       effect="fillet_chamfer"
       id="path-effect2"
       is_visible="true"
       lpeversion="1"
       nodesatellites_param="F,0,0,1,0,1.0583333,0,1 @ F,0,0,1,0,1.0583333,0,1 @ F,0,0,1,0,1.0583333,0,1 @ F,0,0,1,0,1.0583333,0,1"
       radius="0"
       unit="px"
       method="auto"
       mode="F"
       chamfer_steps="1"
       flexible="false"
       use_knot_distance="true"
       apply_no_radius="true"
       apply_with_radius="true"
       only_selected="false"
       hide_knots="false" />
    <inkscape:path-effect
       effect="fillet_chamfer"
       id="path-effect1"
       is_visible="false"
       lpeversion="1"
       nodesatellites_param="F,0,0,1,0,0,0,1 @ F,0,0,1,0,0,0,1 @ F,0,0,1,0,0,0,1 @ F,0,0,1,0,0,0,1"
       radius="0"
       unit="px"
       method="auto"
       mode="F"
       chamfer_steps="1"
       flexible="false"
       use_knot_distance="true"
       apply_no_radius="true"
       apply_with_radius="true"
       only_selected="false"
       hide_knots="false" />
    <inkscape:path-effect
       effect="fillet_chamfer"
       id="path-effect5-7"
       is_visible="true"
       lpeversion="1"
       nodesatellites_param="F,0,0,1,0,0,0,1 @ F,0,0,1,0,1.0583314,0,1 @ F,0,0,1,0,0,0,1 @ F,0,0,1,0,1.0583295,0,1"
       radius="0"
       unit="px"
       method="auto"
       mode="F"
       chamfer_steps="1"
       flexible="false"
       use_knot_distance="true"
       apply_no_radius="true"
       apply_with_radius="true"
       only_selected="false"
       hide_knots="false" />
    <inkscape:path-effect
       effect="fillet_chamfer"
       id="path-effect5-7-2"
       is_visible="true"
       lpeversion="1"
       nodesatellites_param="F,0,0,1,0,0,0,1 @ F,0,0,1,0,0,0,1 @ F,0,0,1,0,0,0,1 @ F,0,0,1,0,0,0,1"
       radius="0"
       unit="px"
       method="auto"
       mode="F"
       chamfer_steps="1"
       flexible="false"
       use_knot_distance="true"
       apply_no_radius="true"
       apply_with_radius="true"
       only_selected="false"
       hide_knots="false" />
  </defs>
  <g
     inkscape:label="Layer 1"
     inkscape:groupmode="layer"
     id="layer1"
     transform="translate(0.14375603)">
    <path
       d="M 3.8249944,1.9433878 A 1.8520832,1.8520832 0 0 0 1.9729112,3.7954722 V 29.724637 A 1.8520832,1.8520832 0 0 0 3.8249944,31.57672 H 29.75416 a 1.8520832,1.8520832 0 0 0 1.852083,-1.852083 V 3.7954722 A 1.8520832,1.8520832 0 0 0 29.75416,1.9433878 Z m 3.439196,3.7041655 H 27.902078 A 1.5874971,1.8520799 0 0 1 26.314964,7.4996377 H 5.677077 A 1.5874971,1.8520799 0 0 1 7.2641904,5.6475533 Z M 5.677077,9.3517202 h 20.637887 a 1.5874971,1.8520799 0 0 1 1.587114,1.8520828 H 7.2641904 A 1.5874971,1.8520799 0 0 1 5.677077,9.3517202 Z M 7.2641904,13.055888 H 27.902078 a 1.5874971,1.8520799 0 0 1 -1.587114,1.852083 H 5.677077 A 1.5874971,1.8520799 0 0 1 7.2641904,13.055888 Z M 5.677077,18.612137 A 1.8520827,1.8520827 0 0 1 7.5291615,20.46422 H 5.677077 Z m 3.7041672,0 H 26.049994 a 1.8520827,1.8520827 0 0 1 1.852084,1.852083 H 11.233327 A 1.8520827,1.8520827 0 0 1 9.3812442,18.612137 Z M 5.677077,22.316305 h 1.8520845 v 1.852083 H 5.677077 Z m 11.112501,0 h 1.852082 v 1.852083 H 16.789578 Z M 5.677077,26.020471 H 7.5291615 9.3812442 26.049994 a 1.8520847,1.8520847 0 0 1 1.852084,1.852083 H 7.5291615 A 1.8520845,1.8520845 0 0 1 5.677077,26.020471 Z"
       style="fill:#ffffff;stroke:#c5c5c5;stroke-width:0"
       id="path2" />
    <path
       d="m 44.297542,20.236085 -4.080877,0.240051 c 0.293397,4.00086 3.494085,6.534738 8.135082,6.534738 4.080877,0 7.254893,-2.027102 7.254893,-5.627876 0,-3.013981 -2.693913,-4.854377 -6.908152,-5.787911 -1.973757,-0.480103 -3.89417,-0.986879 -3.974187,-2.613895 -0.05335,-1.360292 1.173585,-2.267154 2.933964,-2.267154 2.00043,0 3.360722,1.253603 3.600774,3.200688 l 4.054204,-0.160034 C 54.886485,9.9138661 52.005866,7.3266434 47.738282,7.3266434 c -4.294256,0 -7.148203,2.1604643 -7.148203,5.6012036 0,3.067326 2.613895,4.721015 6.721444,5.681221 2.933964,0.746828 4.134222,1.520327 4.160895,2.907292 0.02667,1.360292 -1.200258,2.080447 -3.013981,2.080447 -2.373844,0 -3.787481,-1.306947 -4.160895,-3.360722 z m 22.43846,-2.267154 4.134222,-0.186707 c -0.373414,-3.44074 -3.254033,-5.547859 -6.908152,-5.547859 -4.374273,0 -7.254892,2.907291 -7.254892,7.388255 0,4.480963 2.880619,7.388254 7.254892,7.388254 3.760809,0 6.614755,-2.187137 6.988169,-5.707893 l -4.160894,-0.160035 c -0.240052,1.840396 -1.33362,2.77393 -2.827275,2.77393 -2.00043,0 -3.120671,-1.573672 -3.120671,-4.294256 0,-2.720585 1.120241,-4.294257 3.120671,-4.294257 1.413637,0 2.533878,0.933534 2.77393,2.640568 z m 5.061425,-5.414497 v 14.136371 h 4.054204 v -7.868357 c 0,-2.187137 0.906862,-3.254033 3.227361,-3.254033 h 1.33362 v -3.013981 h -1.280275 c -1.787051,0 -2.853947,0.933534 -3.414068,2.827274 l -0.08002,-2.827274 z M 94.019276,26.690805 V 12.554434 h -4.027532 v 7.761668 c 0,2.240482 -0.880189,3.494084 -2.533878,3.494084 -1.627016,0 -2.10712,-1.253602 -2.10712,-3.494084 v -7.761668 h -4.054204 v 9.095288 c 0,3.280705 1.78705,5.361152 4.827704,5.361152 1.813723,0 3.387395,-0.693482 4.160894,-2.533878 l 0.08002,2.213809 z m 1.134081,-14.136371 v 14.136371 h 4.054205 v -7.761668 c 0,-2.267154 0.800168,-3.494084 2.427188,-3.494084 1.36029,0 2.00043,1.146913 2.00043,3.494084 v 7.761668 h 3.5741 v -7.761668 c 0,-2.293826 0.80017,-3.494084 2.42719,-3.494084 1.38696,0 2.0271,1.146913 2.0271,3.494084 v 7.761668 h 4.02753 v -9.095288 c 0,-3.520757 -1.84039,-5.361152 -4.72101,-5.361152 -1.94709,0 -3.41407,0.960206 -4.13422,2.907291 -0.61347,-1.840395 -2.05378,-2.907291 -4.02753,-2.907291 -1.81373,0 -3.227365,0.933534 -3.920847,2.533878 l -0.10669,-2.213809 z M 116.69851,7.7534018 V 22.74329 c 0,2.533878 1.60034,3.947515 3.94751,3.947515 h 2.18714 v -3.013981 h -1.01355 c -0.69348,0 -1.0669,-0.400086 -1.0669,-1.093568 V 7.7534018 Z m 5.15493,4.8010322 5.09443,13.416217 h 1.12024 l -0.34674,0.880189 c -0.29339,0.640137 -0.72015,0.906861 -1.57367,0.906861 h -1.78705 v 2.933964 h 2.56055 c 2.05377,0 3.2807,-0.826844 3.92084,-2.640567 l 5.57453,-15.496664 h -3.81415 l -3.41407,9.922132 -3.49408,-9.922132 z"
       id="text2"
       style="font-weight:bold;font-size:26.6724px;font-family:Geist;-inkscape-font-specification:'Geist, Bold';letter-spacing:0px;word-spacing:0px;fill:#ffffff;stroke:#c5c5c5;stroke-width:0"
       aria-label="Scrumly" />
  </g>
</svg>
